<svg width="253" height="72" viewBox="0 0 253 72" fill="none" xmlns="http://www.w3.org/2000/svg">
<path d="M1.056 47.736C1.056 45.5173 1.536 43.544 2.496 41.816C3.456 40.0667 4.78933 38.712 6.496 37.752C8.224 36.7707 10.176 36.28 12.352 36.28C15.0187 36.28 17.3013 36.984 19.2 38.392C21.0987 39.8 22.368 41.72 23.008 44.152H16.992C16.544 43.2133 15.904 42.4987 15.072 42.008C14.2613 41.5173 13.3333 41.272 12.288 41.272C10.6027 41.272 9.23733 41.8587 8.192 43.032C7.14667 44.2053 6.624 45.7733 6.624 47.736C6.624 49.6987 7.14667 51.2667 8.192 52.44C9.23733 53.6133 10.6027 54.2 12.288 54.2C13.3333 54.2 14.2613 53.9547 15.072 53.464C15.904 52.9733 16.544 52.2587 16.992 51.32H23.008C22.368 53.752 21.0987 55.672 19.2 57.08C17.3013 58.4667 15.0187 59.16 12.352 59.16C10.176 59.16 8.224 58.68 6.496 57.72C4.78933 56.7387 3.456 55.384 2.496 53.656C1.536 51.928 1.056 49.9547 1.056 47.736ZM42.103 59.224C39.991 59.224 38.0497 58.7333 36.279 57.752C34.5297 56.7707 33.1323 55.4053 32.087 53.656C31.063 51.8853 30.551 49.9013 30.551 47.704C30.551 45.5067 31.063 43.5333 32.087 41.784C33.1323 40.0347 34.5297 38.6693 36.279 37.688C38.0497 36.7067 39.991 36.216 42.103 36.216C44.215 36.216 46.1457 36.7067 47.895 37.688C49.6657 38.6693 51.0523 40.0347 52.055 41.784C53.079 43.5333 53.591 45.5067 53.591 47.704C53.591 49.9013 53.079 51.8853 52.055 53.656C51.031 55.4053 49.6443 56.7707 47.895 57.752C46.1457 58.7333 44.215 59.224 42.103 59.224ZM42.103 54.232C43.895 54.232 45.3243 53.6347 46.391 52.44C47.479 51.2453 48.023 49.6667 48.023 47.704C48.023 45.72 47.479 44.1413 46.391 42.968C45.3243 41.7733 43.895 41.176 42.103 41.176C40.2897 41.176 38.839 41.7627 37.751 42.936C36.6843 44.1093 36.151 45.6987 36.151 47.704C36.151 49.688 36.6843 51.2773 37.751 52.472C38.839 53.6453 40.2897 54.232 42.103 54.232ZM81.8512 59H76.3792L67.2272 45.144V59H61.7552V36.536H67.2272L76.3792 50.456V36.536H81.8512V59ZM96.4098 40.92V45.464H103.738V49.688H96.4098V54.616H104.698V59H90.9378V36.536H104.698V40.92H96.4098ZM112.442 47.736C112.442 45.5173 112.922 43.544 113.882 41.816C114.842 40.0667 116.176 38.712 117.882 37.752C119.61 36.7707 121.562 36.28 123.738 36.28C126.405 36.28 128.688 36.984 130.586 38.392C132.485 39.8 133.754 41.72 134.394 44.152H128.378C127.93 43.2133 127.29 42.4987 126.458 42.008C125.648 41.5173 124.72 41.272 123.674 41.272C121.989 41.272 120.624 41.8587 119.578 43.032C118.533 44.2053 118.01 45.7733 118.01 47.736C118.01 49.6987 118.533 51.2667 119.578 52.44C120.624 53.6133 121.989 54.2 123.674 54.2C124.72 54.2 125.648 53.9547 126.458 53.464C127.29 52.9733 127.93 52.2587 128.378 51.32H134.394C133.754 53.752 132.485 55.672 130.586 57.08C128.688 58.4667 126.405 59.16 123.738 59.16C121.562 59.16 119.61 58.68 117.882 57.72C116.176 56.7387 114.842 55.384 113.882 53.656C112.922 51.928 112.442 49.9547 112.442 47.736ZM159.025 36.536V40.92H153.073V59H147.601V40.92H141.649V36.536H159.025ZM180.876 55.032H172.492L171.148 59H165.42L173.548 36.536H179.884L188.012 59H182.22L180.876 55.032ZM179.468 50.808L176.684 42.584L173.932 50.808H179.468Z" fill="#0031B2"/>
<path d="M248.416 52.528H237.28V63.92H226.912V52.528H215.776V42.736H226.912V31.28H237.28V42.736H248.416V52.528Z" fill="#FF244C"/>
</svg>
